<svg xmlns="http://www.w3.org/2000/svg" width="260" height="308" viewBox="0 0 260 308">
  <title>Harry McCahill — Cancer crest (dark background colorway)</title>
  
  <g stroke="#EAF2F2" stroke-width="1.1" opacity="0.8" stroke-linecap="round">
    <line x1="128" y1="40" x2="131.4" y2="70.6"></line>
    <line x1="131.4" y1="70.6" x2="130" y2="84.6"></line>
    <line x1="130" y1="84.6" x2="116.2" y2="111"></line>
    <line x1="130" y1="84.6" x2="158.1" y2="122.2"></line>
  </g>
  <circle cx="128" cy="40" r="2.1" fill="#EAF2F2"></circle>
  <circle cx="131.4" cy="70.6" r="1.9" fill="#EAF2F2"></circle>
  <circle cx="130" cy="84.6" r="2.3" fill="#EAF2F2"></circle>
  <circle cx="116.2" cy="111" r="2" fill="#EAF2F2"></circle>
  <circle cx="158.1" cy="122.2" r="2.7" fill="#EAF2F2"></circle>
  <circle cx="133" cy="76" r="0.8" fill="#EAF2F2" opacity="0.6"></circle>
  <circle cx="136" cy="78" r="0.8" fill="#EAF2F2" opacity="0.6"></circle>
  <circle cx="134.5" cy="80.5" r="0.8" fill="#EAF2F2" opacity="0.6"></circle>
  <line x1="130" y1="84.6" x2="130" y2="196" stroke="#EAF2F2" stroke-width="1.6" stroke-linecap="round"></line>
  <line x1="76" y1="196" x2="184" y2="196" stroke="#EAF2F2" stroke-width="1.1" opacity="0.55"></line>
  <path d="M118 196 q12 4 24 0" fill="none" stroke="#7CC4CE" stroke-width="1" opacity="0.6"></path>
  <line x1="130" y1="196" x2="130" y2="232" stroke="#7CC4CE" stroke-width="1.6" stroke-linecap="round"></line>
  <circle cx="130" cy="238" r="4" fill="#7CC4CE"></circle>
  <text x="130" y="272" text-anchor="middle" font-family="&#39;EB Garamond&#39;, serif" font-size="20" letter-spacing="3" fill="#EAF2F2">Harry McCahill</text>
  <text x="130" y="293" text-anchor="middle" font-family="&#39;EB Garamond&#39;, serif" font-size="12" letter-spacing="3" fill="#EAF2F2">Fall calm, rise strong</text>
</svg>